<svg width="40" height="40" viewBox="0 0 40 40" fill="none" xmlns="http://www.w3.org/2000/svg">
<path d="M38.812 8.17251L20.812 0.17251C20.5561 0.0587694 20.2791 0 19.999 0C19.7189 0 19.442 0.0587694 19.186 0.17251L1.186 8.17251C1.146 8.19051 1.118 8.22051 1.078 8.24251C1.022 8.27051 0.962 8.28851 0.91 8.32251C0.866 8.35251 0.832 8.39051 0.79 8.42251C0.643806 8.53116 0.515578 8.66209 0.41 8.81051C0.37 8.86651 0.328 8.91651 0.292 8.97251C0.232473 9.07821 0.181639 9.18857 0.14 9.30251C0.122 9.35651 0.0940001 9.40651 0.0780001 9.46051C0.027771 9.63617 0.00153309 9.81782 0 10.0005V30.0005C0 30.7925 0.464 31.5065 1.188 31.8285L19.188 39.8285C19.448 39.9445 19.724 40.0005 20 40.0005C20.2785 39.9934 20.5524 39.928 20.804 39.8085L20.812 39.8285L38.812 31.8285C39.1658 31.6716 39.4664 31.4153 39.6773 31.0908C39.8882 30.7663 40.0003 30.3875 40 30.0005V10.0005C40.0003 9.61349 39.8882 9.23471 39.6773 8.9102C39.4664 8.58569 39.1658 8.32941 38.812 8.17251ZM20 4.19051L33.076 10.0005L20 15.8105L17.384 14.6485L6.926 10.0005L20 4.19051ZM4 28.7025V13.0785L18 19.3005V34.9225L4 28.7025ZM22 34.9225V19.3005L36 13.0785V28.7025L22 34.9225Z" fill="#F2F2F2"/>
</svg>
