<svg width="28" height="32" viewBox="0 0 28 32" fill="none" xmlns="http://www.w3.org/2000/svg">
<path fill-rule="evenodd" clip-rule="evenodd" d="M12 30C12 30.5304 11.7893 31.0391 11.4142 31.4142C11.0391 31.7893 10.5304 32 10 32C9.46957 32 8.96086 31.7893 8.58579 31.4142C8.21071 31.0391 8 30.5304 8 30V8C8 7.46957 8.21071 6.96086 8.58579 6.58579C8.96086 6.21071 9.46957 6 10 6C10.5304 6 11.0391 6.21071 11.4142 6.58579C11.7893 6.96086 12 7.46957 12 8V30ZM4 30C4 30.5304 3.78929 31.0391 3.41421 31.4142C3.03914 31.7893 2.53043 32 2 32C1.46957 32 0.96086 31.7893 0.585787 31.4142C0.210714 31.0391 0 30.5304 0 30V16C0 15.4696 0.210714 14.9609 0.585787 14.5858C0.96086 14.2107 1.46957 14 2 14C2.53043 14 3.03914 14.2107 3.41421 14.5858C3.78929 14.9609 4 15.4696 4 16V30ZM16 30V12C16 11.4696 16.2107 10.9609 16.5858 10.5858C16.9609 10.2107 17.4696 10 18 10C18.5304 10 19.0391 10.2107 19.4142 10.5858C19.7893 10.9609 20 11.4696 20 12V30C20 30.5304 19.7893 31.0391 19.4142 31.4142C19.0391 31.7893 18.5304 32 18 32C17.4696 32 16.9609 31.7893 16.5858 31.4142C16.2107 31.0391 16 30.5304 16 30ZM24 2C24 1.46957 24.2107 0.96086 24.5858 0.585787C24.9609 0.210714 25.4696 0 26 0C26.5304 0 27.0391 0.210714 27.4142 0.585787C27.7893 0.96086 28 1.46957 28 2V30C28 30.5304 27.7893 31.0391 27.4142 31.4142C27.0391 31.7893 26.5304 32 26 32C25.4696 32 24.9609 31.7893 24.5858 31.4142C24.2107 31.0391 24 30.5304 24 30V2Z" fill="#F2F2F2"/>
</svg>
