<svg width="30" height="40" viewBox="0 0 30 40" fill="none" xmlns="http://www.w3.org/2000/svg">
<path d="M14.9999 40C16.1931 40 16.7897 39.4531 16.7897 38.3594V33.2031C20.3692 32.8385 23.2953 31.6667 25.5681 29.6875C28.2385 27.3958 29.5737 24.1667 29.5737 20C29.5737 18.8021 29.5169 17.9167 29.4033 17.3438C29.6306 16.6667 29.5453 16.1198 29.1476 15.7031L28.9772 15.4688C28.409 13.2812 27.4999 11.224 26.2499 9.29688C24.9999 7.36979 23.6078 5.78125 22.0738 4.53125C20.5397 3.28125 19.3323 2.34375 18.4516 1.71875C17.5709 1.09375 16.7897 0.598958 16.1078 0.234375L15.9374 0.15625L15.5113 0H14.4885L14.0624 0.15625C13.8919 0.208333 13.4658 0.429688 12.784 0.820312C12.1022 1.21094 11.1789 1.84896 10.0141 2.73438C8.84932 3.61979 7.69875 4.63542 6.56239 5.78125C5.42602 6.92708 4.33228 8.35938 3.28114 10.0781C2.23 11.7969 1.47716 13.5938 1.02262 15.4688L0.852162 15.7031C0.454434 16.1198 0.369207 16.6667 0.59648 17.3438C0.482844 17.9167 0.426025 18.8021 0.426025 20C0.426025 24.1667 1.76125 27.3958 4.43171 29.6875C6.70443 31.6667 9.63057 32.8385 13.2101 33.2031V38.3594C13.2101 39.4531 13.8067 40 14.9999 40ZM16.7897 4.6875C18.8351 6.14583 20.5397 7.68229 21.9033 9.29688L16.7897 13.2031V4.6875ZM16.7897 17.5L23.9488 12.3438C24.2897 12.9167 24.7726 14.1927 25.3976 16.1719L16.7897 21.7969V17.5ZM16.7897 25.8594L25.909 19.8438V20C25.909 23.2812 24.9431 25.7292 23.0113 27.3438C21.3635 28.6458 19.2897 29.5312 16.7897 30V25.8594ZM13.2101 4.6875V13.2031L8.09648 9.53125C8.94875 8.33333 10.6533 6.71875 13.2101 4.6875ZM6.05102 12.3438L13.2101 17.5V21.7969L4.60216 16.1719C4.99989 14.8698 5.48284 13.5938 6.05102 12.3438ZM6.98852 27.3438C5.05671 25.5729 4.0908 23.125 4.0908 20V19.8438L13.2101 25.8594V29.8438C10.8806 29.6354 8.80671 28.8021 6.98852 27.3438Z" fill="#F2F2F2"/>
</svg>
